<?xml version="1.0" encoding="UTF-8"?><svg id="_图层_1" xmlns="http://www.w3.org/2000/svg" width="373.01" height="373.01" xmlns:xlink="http://www.w3.org/1999/xlink" viewBox="0 0 373.01 373.01"><defs><linearGradient id="_未命名的渐变_121" x1="47.14" y1="186.51" x2="311.34" y2="186.51" gradientUnits="userSpaceOnUse"><stop offset="0" stop-color="#fff"/><stop offset="1" stop-color="#f1eeef"/></linearGradient><linearGradient id="_未命名的渐变_121-2" x1="70.76" y1="199.38" x2="179.24" y2="199.38" xlink:href="#_未命名的渐变_121"/><linearGradient id="_未命名的渐变_121-3" x1="70.76" y1="277.67" x2="179.24" y2="277.67" xlink:href="#_未命名的渐变_121"/></defs><polygon points="294.97 206.25 294.97 230.06 179.24 290.99 70.76 233.88 63.51 230.06 63.51 206.25 70.76 210.05 179.24 266.98 294.97 206.25" style="fill:#305c53;"/><polygon points="311.34 123.54 311.34 247.47 303.9 251.64 254.03 279.57 179.24 321.47 179.24 290.99 294.97 230.06 294.97 206.25 179.24 266.98 179.22 245.81 179.18 204.47 287.6 131.77 179.12 73.06 70.77 131.76 70.76 131.76 70.76 210.05 63.51 206.25 63.51 230.06 70.76 233.88 70.76 260.7 54.86 251.79 47.14 247.47 47.14 123.54 179.24 51.55 311.34 123.54" style="fill:url(#_未命名的渐变_121);"/><polygon points="179.24 266.98 70.76 210.05 70.76 131.77 179.18 204.47 179.22 245.81 179.24 266.98" style="fill:url(#_未命名的渐变_121-2);"/><polygon points="179.24 290.99 179.24 321.47 108.35 281.76 70.76 260.7 70.76 233.88 179.24 290.99" style="fill:url(#_未命名的渐变_121-3);"/></svg>