<?xml version="1.0" encoding="UTF-8"?><svg id="_图层_1" xmlns="http://www.w3.org/2000/svg" width="373.01" height="373.01" xmlns:xlink="http://www.w3.org/1999/xlink" viewBox="0 0 373.01 373.01"><defs><linearGradient id="_未命名的渐变_62" x1="54.41" y1="191.25" x2="318.61" y2="191.25" gradientUnits="userSpaceOnUse"><stop offset="0" stop-color="#000"/><stop offset="1" stop-color="#0e1110"/></linearGradient><linearGradient id="_未命名的渐变_62-2" x1="78.03" y1="204.11" x2="186.51" y2="204.11" xlink:href="#_未命名的渐变_62"/><linearGradient id="_未命名的渐变_62-3" x1="78.03" y1="282.41" x2="186.51" y2="282.41" xlink:href="#_未命名的渐变_62"/></defs><polygon points="302.24 210.99 302.24 234.8 186.51 295.73 78.03 238.62 70.78 234.8 70.78 210.99 78.03 214.79 186.51 271.72 302.24 210.99" style="fill:#308c53;"/><polygon points="318.61 128.28 318.61 252.21 186.51 326.21 186.51 295.73 302.24 234.8 302.24 210.99 186.51 271.72 186.47 232.28 186.45 209.21 294.87 136.51 186.39 77.8 78.04 136.5 78.03 136.5 78.03 214.79 70.78 210.99 70.78 234.8 78.03 238.62 78.03 265.44 54.41 252.21 54.41 128.28 186.51 56.29 318.61 128.28" style="fill:url(#_未命名的渐变_62);"/><polygon points="186.51 271.72 78.03 214.79 78.03 136.51 186.45 209.21 186.47 232.28 186.51 271.72" style="fill:url(#_未命名的渐变_62-2);"/><polygon points="186.51 295.73 186.51 326.21 78.03 265.44 78.03 238.62 186.51 295.73" style="fill:url(#_未命名的渐变_62-3);"/></svg>