<?xml version="1.0" encoding="UTF-8"?><svg id="_图层_1" xmlns="http://www.w3.org/2000/svg" width="945.37" height="512" viewBox="0 0 945.37 512"><path d="M616.82,252.06h-288.27c-23.15,0-41.93,15.67-41.93,35v92.79c0,19.33,18.77,35,41.93,35h288.27c23.15,0,41.93-15.67,41.93-35v-92.79c0-19.33-18.77-35-41.93-35ZM491.52,392.73h-32.63v-67.76l-29.11,40.87c-.38.53-.98.84-1.63.84h-2.91c-.65,0-1.26-.31-1.63-.84l-29.11-40.87v67.76h-32.63v-118.83h35.27l28.12,42.18c.68,1.03,2.19,1.03,2.88,0l28.12-42.18h35.27v118.83ZM600.73,342.45l-40.8,49.84c-1.98,2.42-5.69,2.42-7.68,0l-40.8-49.84c-2.65-3.24-.35-8.1,3.84-8.1h22.26v-60.45h37.07v60.45h22.26c4.18,0,6.49,4.86,3.84,8.1Z"/><rect x="571.87" y="93.64" width="3.83" height="135.04" style="fill:#305c53;"/><rect x="544.27" y="93.64" width="6.04" height="135.04" style="fill:#305c53;"/><rect x="553.47" y="93.64" width="5.4" height="135.04" style="fill:#305c53;"/><rect x="562.67" y="93.64" width="4.77" height="135.04" style="fill:#305c53;"/><polygon points="541.74 228.68 541.74 93.64 521.35 93.64 521.35 147.98 458.03 147.98 458.03 93.64 428.47 93.64 428.47 161.16 428.47 228.68 458.03 228.68 458.03 174.34 521.35 174.34 521.35 228.68 541.74 228.68" style="fill:#305c53;"/><rect x="579.53" y="205.05" width="76.21" height="23.63" style="fill:#305c53;"/><rect x="579.53" y="93.64" width="74.55" height="24.78" style="fill:#305c53;"/><rect x="579.53" y="148.86" width="65.68" height="24.39" style="fill:#305c53;"/><path d="M315.27,161.16c-.1,1.55-.71,44.14,49.22,44.14,19.32-.39,43.05-7.3,43.05-7.3v26.49s-54.95,19.68-93.98-5.29c-9.19-5.37-15.58-12.35-20-19.61-.02,0-.02-.01-.02-.02-6.18-11.1-9.76-23.85-9.92-37.42.02-.64.04-.99.04-.99,0,0-.02-.35-.04-.99.16-13.57,3.74-26.32,9.92-37.42,0-.01,0-.02.01-.02,4.43-7.25,10.82-14.23,20.01-19.6,39.03-24.98,93.98-5.3,93.98-5.3v26.49s-23.73-6.91-43.05-7.3c-49.93,0-49.32,42.59-49.22,44.14Z" style="fill:#305c53;"/></svg>